<?xml version="1.0" encoding="iso-8859-1"?>
<!-- Generator: Adobe Illustrator 19.0.0, SVG Export Plug-In . SVG Version: 6.00 Build 0)  -->
<svg version="1.1" id="Capa_1" xmlns="http://www.w3.org/2000/svg" xmlns:xlink="http://www.w3.org/1999/xlink" x="0px" y="0px"
	 viewBox="0 0 512 512" style="enable-background:new 0 0 512 512;" xml:space="preserve">
<g>
	<g>
		<path d="M467,121h-76V76c0-24.813-20.187-45-45-45H166c-24.813,0-45,20.187-45,45v45H45c-24.813,0-45,20.187-45,45v83.631
			c0,19.306,12.043,36.4,30,42.653V436c0,24.873,21.097,45,46,45h361c24.813,0,45-20.187,45-45V292.284
			c17.957-6.253,30-23.347,30-42.653V166C512,141.187,491.813,121,467,121z M151,76c0-8.271,6.729-15,15-15h180
			c8.271,0,15,6.729,15,15v45c-11.116,0-198.538,0-210,0V76z M241,299.319V151h30v148.319
			C261.001,299.54,250.999,299.54,241,299.319z M271,331v15c0,8.271-6.729,15-15,15s-15-6.729-15-15v-15H271z M39.967,263.994
			C34.099,262,30,256.094,30,249.631V166c0-8.271,6.729-15,15-15h166v146.989C152.94,294.131,95.337,282.805,39.967,263.994z
			 M452,436c0,8.271-6.729,15-15,15H76c-8.523,0-16-7.009-16-15V301.732c49.274,14.296,99.975,23.068,151,26.312V346
			c0,24.813,20.187,45,45,45s45-20.187,45-45v-17.955c51.025-3.245,101.726-12.016,151-26.312V436z M482,249.631
			c0,6.462-4.099,12.368-9.967,14.362C416.663,282.805,359.06,294.131,301,297.989V151h166c8.271,0,15,6.729,15,15V249.631z"/>
	</g>
</g>
<g>
</g>
<g>
</g>
<g>
</g>
<g>
</g>
<g>
</g>
<g>
</g>
<g>
</g>
<g>
</g>
<g>
</g>
<g>
</g>
<g>
</g>
<g>
</g>
<g>
</g>
<g>
</g>
<g>
</g>
</svg>
